<mxfile host="app.diagrams.net" modified="2021-04-17T06:25:55.511Z" agent="5.0 (Macintosh; Intel Mac OS X 11_2_3) AppleWebKit/537.36 (KHTML, like Gecko) Chrome/88.0.4324.96 Safari/537.36" etag="DUP_61biO-HG4byVhiAH" version="14.6.1" type="github">
  <diagram id="HAbrl762_PNjRWY2l_dj" name="第 1 页">
    <mxGraphModel dx="1367" dy="771" grid="1" gridSize="10" guides="1" tooltips="1" connect="1" arrows="1" fold="1" page="1" pageScale="1" pageWidth="827" pageHeight="1169" math="0" shadow="0">
      <root>
        <mxCell id="0" />
        <mxCell id="1" parent="0" />
        <mxCell id="wn-I9im4zyKSfdLFJuxH-1" value="Shell(Linux平台)" style="rounded=0;whiteSpace=wrap;html=1;" vertex="1" parent="1">
          <mxGeometry x="110" y="300" width="120" height="60" as="geometry" />
        </mxCell>
        <mxCell id="wn-I9im4zyKSfdLFJuxH-2" value="FileBatch(Win平台)" style="rounded=0;whiteSpace=wrap;html=1;" vertex="1" parent="1">
          <mxGeometry x="294" y="300" width="120" height="60" as="geometry" />
        </mxCell>
      </root>
    </mxGraphModel>
  </diagram>
</mxfile>
